HIERARCHY
ROOT Hips
{
	OFFSET 0.000000 0.000000 0.000000
	CHANNELS 6 Xposition Yposition Zposition Zrotation Yrotation Xrotation 
	JOINT LHipJoint
	{
		OFFSET 0.000000 0.000000 0.000000
		CHANNELS 3 Zrotation Yrotation Xrotation
		JOINT LeftUpLeg
		{
			OFFSET 1.363060 -1.794630 0.839290
			CHANNELS 3 Zrotation Yrotation Xrotation
			JOINT LeftLeg
			{
				OFFSET 2.448110 -6.726130 0.000000
				CHANNELS 3 Zrotation Yrotation Xrotation
				JOINT LeftFoot
				{
					OFFSET 2.562200 -7.039590 0.000000
					CHANNELS 3 Zrotation Yrotation Xrotation
					JOINT LeftToeBase
					{
						OFFSET 0.157640 -0.433110 2.322550
						CHANNELS 3 Zrotation Yrotation Xrotation
						End Site
						{
							OFFSET 0.000000 0.000000 0.000000
						}
					}
				}
			}
		}
	}
	JOINT RHipJoint
	{
		OFFSET 0.000000 0.000000 0.000000
		CHANNELS 3 Zrotation Yrotation Xrotation
		JOINT RightUpLeg
		{
			OFFSET -1.305520 -1.794630 0.839290
			CHANNELS 3 Zrotation Yrotation Xrotation
			JOINT RightLeg
			{
				OFFSET -2.542530 -6.985550 0.000000
				CHANNELS 3 Zrotation Yrotation Xrotation
				JOINT RightFoot
				{
					OFFSET -2.568260 -7.056230 0.000000
					CHANNELS 3 Zrotation Yrotation Xrotation
					JOINT RightToeBase
					{
						OFFSET -0.164730 -0.452590 2.363150
						CHANNELS 3 Zrotation Yrotation Xrotation
						End Site
						{
							OFFSET 0.000000 0.000000 0.000000
						}
					}
				}
			}
		}
	}
}
MOTION
Frames: 33
Frame Time: 0.008333
4.074326 17.352481 0.752363 -173.897001 -40.157048 -175.618828 -12.455917 3.235875 -2.384214 -2.434107 41.005603 -11.636705 -2.838993 -0.620318 3.667093 2.934995 22.061707 -2.549955 1.971200 -0.000000 -30.870300 7.920358 -1.792078 8.481950 5.219007 19.495009 -16.931891 4.175930 1.087975 0.806512 2.447384 17.995167 12.224414 5.030900 -0.000000 -65.024700
4.078954 17.353258 0.769766 -173.833991 -39.291983 -175.618737 -12.418669 3.274955 -2.507986 -2.465382 41.383470 -11.578707 -2.859443 -0.596035 3.624524 2.983274 22.399471 -2.567565 1.999401 -0.000000 -30.653300 7.968205 -1.696220 8.477846 5.198030 19.740826 -17.003257 4.202384 1.095116 0.756952 2.472901 18.385532 12.465996 5.213500 -0.000000 -65.520900
4.082915 17.355402 0.787431 -173.750108 -38.512043 -175.581360 -12.365003 3.302168 -2.630702 -2.541079 41.678430 -11.578212 -2.875330 -0.574069 3.581964 3.037673 22.761848 -2.582135 2.035299 0.000000 -30.418300 8.027981 -1.597904 8.467063 5.161177 19.982800 -17.161471 4.217583 1.091414 0.785438 2.493298 18.730961 12.681095 5.379900 -0.000000 -66.025900
4.085685 17.359056 0.804909 -173.652517 -37.797880 -175.500071 -12.296600 3.319187 -2.752743 -2.666129 41.904848 -11.636306 -2.888165 -0.553957 3.539050 3.097463 23.146821 -2.587133 2.081300 -0.000000 -30.169199 8.096869 -1.497941 8.455552 5.100760 20.235774 -17.406773 4.221469 1.077486 0.881417 2.509204 19.034037 12.879232 5.532801 0.000000 -66.516000
4.086820 17.364320 0.821882 -173.556153 -37.126472 -175.371102 -12.220800 3.330114 -2.872108 -2.841974 42.080762 -11.746435 -2.899366 -0.535158 3.493753 3.160981 23.548744 -2.574254 2.139800 0.000000 -29.915500 8.167687 -1.398751 8.449675 5.008572 20.512273 -17.728708 4.215437 1.055408 1.028179 2.521580 19.297697 13.071507 5.675600 -0.000000 -66.981300
4.086099 17.370924 0.837996 -173.482326 -36.473851 -175.196600 -12.149105 3.340867 -2.984925 -3.064606 42.233370 -11.897185 -2.911284 -0.517216 3.446332 3.224656 23.951387 -2.539179 2.210100 0.000001 -29.671100 8.229828 -1.304718 8.457143 4.878530 20.822142 -18.108245 4.202253 1.028274 1.207827 2.531706 19.525069 13.263766 5.809800 0.000000 -67.404900
4.083510 17.378383 0.853018 -173.458245 -35.784399 -174.982557 -12.097259 3.366960 -3.083238 -3.328571 42.396744 -12.074239 -2.927552 -0.494957 3.398434 3.285492 24.338517 -2.481893 2.288601 -0.000000 -29.453801 8.271965 -1.212699 8.483269 4.705548 21.176222 -18.517666 4.188256 1.002269 1.409328 2.542293 19.721750 13.459697 5.935000 0.000000 -67.772400
4.079363 17.386159 0.866846 -173.472471 -35.096350 -174.739699 -12.059382 3.396850 -3.177285 -3.618065 42.583225 -12.267241 -2.948929 -0.474340 3.352004 3.338203 24.684625 -2.403278 2.371600 0.000000 -29.277900 8.297106 -1.133455 8.529428 4.493301 21.572953 -18.943961 4.170966 0.975984 1.605092 2.551365 19.880328 13.655634 6.049700 0.000000 -68.071200
4.073817 17.393846 0.879405 -173.518395 -34.422988 -174.476790 -12.032656 3.427447 -3.270537 -3.922894 42.798121 -12.466360 -2.975734 -0.456872 3.306474 3.380306 24.975968 -2.305976 2.455800 0.000000 -29.153000 8.307321 -1.069623 8.595119 4.244347 22.009692 -19.372131 4.150359 0.950299 1.775218 2.558180 19.995410 13.849807 6.151400 0.000001 -68.290200
4.067195 17.400973 0.890590 -173.587304 -33.773935 -174.201211 -12.012809 3.457461 -3.364479 -4.235553 43.037472 -12.664862 -3.007587 -0.442539 3.261649 3.411057 25.205756 -2.195183 2.537700 -0.000000 -29.082500 8.306685 -1.019924 8.677422 3.962458 22.480626 -19.790278 4.126757 0.926324 1.906698 2.562217 20.062474 14.038491 6.237100 0.000000 -68.424000
4.060036 17.407208 0.900584 -173.673396 -33.160467 -173.920098 -11.996111 3.484802 -3.461035 -4.546775 43.290554 -12.854315 -3.043091 -0.430774 3.218235 3.431061 25.373502 -2.079351 2.613400 -0.000000 -29.065200 8.298867 -0.981368 8.770620 3.653481 22.977698 -20.186328 4.100342 0.904727 1.990746 2.562850 20.075826 14.218363 6.303000 0.000000 -68.470300
4.052683 17.412038 0.909666 -173.769582 -32.594857 -173.641273 -11.980799 3.507977 -3.559504 -4.848599 43.546293 -13.029710 -3.080942 -0.421063 3.181078 3.441293 25.479627 -1.971859 2.676500 -0.000000 -29.095300 8.285720 -0.951796 8.870049 3.324052 23.489424 -20.553451 4.071473 0.885673 2.029326 2.559851 20.034352 14.380736 6.345300 -0.000000 -68.437700
4.045674 17.415149 0.917543 -173.887047 -32.052136 -173.357931 -11.972124 3.536824 -3.651532 -5.150120 43.785954 -13.197810 -3.120545 -0.409127 3.152896 3.445517 25.538447 -1.885083 2.723300 -0.000000 -29.160800 8.266173 -0.924076 8.970181 2.973101 24.009792 -20.893849 4.043668 0.872773 2.035770 2.555184 19.941200 14.518933 6.359899 -0.000000 -68.341100
4.039109 17.416608 0.923661 -174.027022 -31.561780 -173.066274 -11.968796 3.569890 -3.723389 -5.466329 43.971871 -13.370691 -3.157873 -0.397850 3.133264 3.447898 25.571658 -1.824677 2.755200 -0.000000 -29.240499 8.239288 -0.903064 9.076741 2.596266 24.526033 -21.220437 4.015018 0.864997 2.014030 2.548618 19.792786 14.627381 6.344500 -0.000000 -68.196800
4.033437 17.416424 0.928864 -174.180265 -31.153329 -172.780156 -11.966589 3.599726 -3.774025 -5.785511 44.084384 -13.539602 -3.189149 -0.388898 3.129411 3.451049 25.592344 -1.801470 2.769801 0.000000 -29.314300 8.207363 -0.890081 9.186929 2.204462 25.023085 -21.530081 3.983301 0.859015 1.973155 2.538996 19.591477 14.702392 6.300100 -0.000001 -68.029400
4.029192 17.414388 0.934192 -174.342594 -30.834560 -172.510142 -11.964693 3.621280 -3.807898 -6.091158 44.116569 -13.692161 -3.212246 -0.382345 3.149593 3.457218 25.612129 -1.828677 2.762900 -0.000001 -29.370900 8.172093 -0.883547 9.292091 1.811985 25.487165 -21.818544 3.947933 0.852330 1.932528 2.526172 19.349433 14.737156 6.229400 0.000000 -67.853800
4.026347 17.410425 0.940485 -174.506171 -30.603003 -172.262866 -11.964100 3.631825 -3.829174 -6.373266 44.071550 -13.827363 -3.227004 -0.377453 3.205671 3.467791 25.637159 -1.918296 2.729600 0.000000 -29.395300 8.133354 -0.881979 9.386385 1.430318 25.911906 -22.086576 3.909606 0.843604 1.909305 2.510538 19.078292 14.728625 6.136200 0.000000 -67.702900
4.025006 17.404694 0.948171 -174.673016 -30.449979 -172.038414 -11.965946 3.631331 -3.838667 -6.630877 43.944420 -13.942760 -3.231980 -0.374163 3.297888 3.485777 25.686657 -2.070698 2.672400 -0.000000 -29.381400 8.091692 -0.883977 9.465248 1.066551 26.288430 -22.338818 3.868660 0.831720 1.920296 2.493044 18.796361 14.676627 6.027299 0.000000 -67.597700
4.024797 17.397400 0.957579 -174.830049 -30.365622 -171.839367 -11.968124 3.617708 -3.845215 -6.856512 43.765347 -14.055000 -3.231938 -0.369851 3.449783 3.508510 25.741332 -2.296954 2.582200 -0.000000 -29.303100 8.048226 -0.887170 9.526924 0.729327 26.622833 -22.578319 3.826171 0.816312 1.971634 2.473873 18.506932 14.584175 5.905200 0.000000 -67.525600
4.025547 17.389178 0.968926 -174.982850 -30.337174 -171.662944 -11.971954 3.593665 -3.845721 -7.058962 43.517803 -14.153667 -3.222707 -0.365985 3.639560 3.540835 25.837189 -2.574738 2.474500 0.000000 -29.178800 8.004570 -0.891130 9.568451 0.420478 26.903957 -22.807887 3.782353 0.796807 2.070650 2.454273 18.232686 14.460141 5.781000 0.000000 -67.506801
4.026918 17.380572 0.982176 -175.127713 -30.353417 -171.507630 -11.976311 3.560010 -3.844283 -7.239020 43.218658 -14.244804 -3.206162 -0.361718 3.867816 3.581676 25.970810 -2.893051 2.352500 0.000000 -29.008000 7.962129 -0.895245 9.590165 0.142431 27.136151 -23.025633 3.738090 0.773769 2.209536 2.434546 17.976737 14.316861 5.659300 -0.000000 -67.531200
4.028462 17.372036 0.997309 -175.259397 -30.404697 -171.374397 -11.979818 3.517928 -3.846755 -7.397766 42.900110 -14.339667 -3.186830 -0.355658 4.141969 3.626929 26.119160 -3.247462 2.213500 0.000000 -28.761800 7.922402 -0.899401 9.593040 -0.101709 27.320515 -23.232014 3.694147 0.747324 2.385889 2.415133 17.744451 14.162562 5.544301 0.000000 -67.586500
4.029956 17.364202 1.013950 -175.385672 -30.484124 -171.258526 -11.984508 3.470897 -3.849988 -7.542939 42.557428 -14.429363 -3.162551 -0.349354 4.436170 3.677578 26.297030 -3.607939 2.073400 0.000000 -28.485100 7.884985 -0.905421 9.579752 -0.317214 27.459772 -23.418865 3.651234 0.719247 2.579330 2.396233 17.533666 14.011887 5.438800 0.000000 -67.661800
4.031037 17.357463 1.031760 -175.508573 -30.589317 -171.158087 -11.991578 3.421407 -3.854439 -7.677738 42.206602 -14.514577 -3.135177 -0.343020 4.741002 3.730406 26.490290 -3.958346 1.937000 -0.000000 -28.185300 7.849144 -0.915283 9.554178 -0.508160 27.559526 -23.579513 3.609955 0.690980 2.772690 2.377642 17.336120 13.875259 5.342200 0.000000 -67.743400
4.031641 17.352165 1.050249 -175.635713 -30.722257 -171.069728 -12.002864 3.372459 -3.857544 -7.807997 41.853955 -14.593114 -3.105319 -0.337635 5.040265 3.782903 26.689688 -4.280113 1.812200 0.000000 -27.890900 7.813647 -0.931435 9.520769 -0.681053 27.623649 -23.706838 3.570677 0.664326 2.947000 2.359055 17.141003 13.759794 5.252300 -0.000001 -67.819100
4.031601 17.348405 1.069037 -175.768732 -30.889417 -170.992813 -12.018796 3.325943 -3.858735 -7.936541 41.514301 -14.666810 -3.075619 -0.333654 5.329496 3.830738 26.870462 -4.571483 1.697000 -0.000000 -27.558900 7.778387 -0.955849 9.482530 -0.837819 27.649434 -23.798182 3.533293 0.639823 3.096852 2.340239 16.942430 13.665060 5.166800 -0.000000 -67.878899
4.031068 17.346316 1.087541 -175.914707 -31.100433 -170.922000 -12.040445 3.283826 -3.852876 -8.066380 41.174268 -14.727599 -3.044168 -0.332686 5.585617 3.873409 27.035114 -4.810764 1.603700 0.000000 -27.269000 7.742521 -0.990030 9.443631 -0.987802 27.646001 -23.844914 3.497667 0.619720 3.198175 2.319993 16.717856 13.595898 5.078800 0.000001 -67.913600
4.030183 17.345783 1.105394 -176.073699 -31.366865 -170.856054 -12.066859 3.246903 -3.837953 -8.198384 40.833099 -14.774860 -3.011862 -0.335340 5.802891 3.908544 27.168608 -4.998663 1.531100 0.000001 -27.005800 7.707108 -1.034316 9.405311 -1.132844 27.610603 -23.845874 3.463284 0.604440 3.248391 2.297708 16.458785 13.547075 4.983800 0.000000 -67.918400
4.029150 17.346581 1.122295 -176.245878 -31.700636 -170.792464 -12.096493 3.215563 -3.811156 -8.332048 40.481225 -14.805903 -2.978377 -0.342265 5.973624 3.935299 27.265120 -5.133688 1.480600 -0.000000 -26.794300 7.673800 -1.088046 9.367892 -1.274186 27.541065 -23.801257 3.429490 0.594297 3.246722 2.272731 16.157337 13.512450 4.877400 -0.000000 -67.894400
4.028238 17.348373 1.138096 -176.427314 -32.111635 -170.732039 -12.127436 3.189105 -3.772329 -8.463629 40.118970 -14.824305 -2.945406 -0.353032 6.105262 3.951806 27.307735 -5.232141 1.442899 0.000000 -26.578100 7.643942 -1.149865 9.330839 -1.409486 27.434862 -23.713819 3.395840 0.589004 3.200418 2.244537 15.808805 13.482332 4.755500 0.000000 -67.835900
4.027724 17.350812 1.152728 -176.615885 -32.606624 -170.674127 -12.157600 3.167226 -3.719134 -8.591380 39.729750 -14.825235 -2.911246 -0.367933 6.191538 3.959499 27.304033 -5.291971 1.420600 -0.000000 -26.419200 7.620034 -1.217328 9.291762 -1.537329 27.286456 -23.587580 3.361667 0.588011 3.119295 2.212988 15.416468 13.447420 4.617200 0.000000 -67.755900
4.027888 17.353463 1.166235 -176.807950 -33.188043 -170.619168 -12.185232 3.148954 -3.652579 -8.710647 39.313329 -14.811844 -2.877144 -0.386051 6.243217 3.958089 27.246786 -5.330144 1.404600 0.000001 -26.280900 7.603338 -1.288004 9.248606 -1.652894 27.092447 -23.427920 3.326729 0.590489 3.017039 2.178138 14.985274 13.398244 4.462100 -0.000000 -67.662200
4.028962 17.355954 1.178790 -176.999510 -33.853596 -170.569388 -12.208830 3.133201 -3.573701 -8.817489 38.866080 -14.784098 -2.843001 -0.406657 6.266404 3.948618 27.139245 -5.355482 1.391001 0.000000 -26.173700 7.595333 -1.358962 9.198139 -1.751129 26.847186 -23.242008 3.290863 0.595106 2.911808 2.140567 14.528633 13.325208 4.293200 -0.000000 -67.560900
